<?xml version="1.0" encoding="UTF-8"?>
<svg id="Layer_2" data-name="Layer 2" xmlns="http://www.w3.org/2000/svg" xmlns:xlink="http://www.w3.org/1999/xlink" viewBox="0 0 2214 2214">
  <defs>
    <style>
      .cls-1 {
        fill: url(#linear-gradient);
      }

      .cls-1, .cls-2 {
        stroke-width: 0px;
      }

      .cls-2 {
        fill: #fff;
      }
    </style>
    <linearGradient id="linear-gradient" x1="395.52" y1="1815.99" x2="1963.79" y2="253.2" gradientUnits="userSpaceOnUse">
      <stop offset="0" stop-color="#000"/>
      <stop offset=".32" stop-color="#030303"/>
      <stop offset=".62" stop-color="#0e0e0e"/>
      <stop offset=".9" stop-color="#212121"/>
      <stop offset=".98" stop-color="#282828"/>
    </linearGradient>
  </defs>
  <g id="Layer_1-2" data-name="Layer 1">
    <circle class="cls-1" cx="1107" cy="1107" r="1107"/>
    <g id="Iso">
      <path class="cls-2" d="M1914.36,512.03c-2.72,4.22-4.7,7.19-8.57,8.06-25.83,5.84-174.4-5.03-239.11,16.3-105.99,34.94-192.08,143.49-243.07,241.6-75.81,145.85-149.59,292.74-224.23,439.2-41.2,80.85-80.82,162.79-137.08,234.65-100.2,127.98-230.58,198.14-394.74,200.46-122.29,1.73-244.6,2.36-366.9,3.82-24.45.29-32.8-20.82-25.76-20.87,55.35-.39,100.11,1.54,155.46,1.38,150.26-.42,271.61-78.49,364.9-194.54,66.47-82.68,111.01-178.07,158.48-271.77,63.8-125.92,125.36-253.04,191.79-377.56,51.93-97.32,123.09-178.72,222.82-231.07,65.61-34.44,135.71-54.86,209.71-56.41,105.2-2.19,210.47-1.07,315.71-1.31,2.84,0,25.98-.3,20.58,8.06Z"/>
      <path class="cls-2" d="M1916.4,734.42c-54.89-.05-109.77-.3-164.64.84-47.24.98-91.99,14.02-133.87,36.01-63.66,33.42-109.09,85.38-142.24,147.51-42.41,79.49-81.7,160.64-122.44,241.02-30.31,59.82-58.74,120.71-101.17,173.49-59.55,74.08-137.02,123.92-232.94,124.19-35.34.1-63.91-1.13-99.24-.88-4.49.03.84,13.51,16.45,13.32,78.07-.93,156.15-1.33,234.22-2.44,104.79-1.48,188.03-46.26,251.99-127.97,35.92-45.87,61.2-98.18,87.51-149.79,47.65-93.49,94.75-187.27,143.14-280.37,32.55-62.63,87.51-131.92,155.17-154.23,25.84-8.52,72.61-8.99,108.07-9.07v-11.63Z"/>
    </g>
  </g>
</svg>